<svg width="256" height="256" viewBox="0 0 256 256" fill="none" xmlns="http://www.w3.org/2000/svg">
  <defs>
    <linearGradient id="storich-bg" x1="32" y1="24" x2="224" y2="232" gradientUnits="userSpaceOnUse">
      <stop stop-color="#2563EB"/>
      <stop offset="1" stop-color="#7C3AED"/>
    </linearGradient>
  </defs>
  <rect width="256" height="256" fill="url(#storich-bg)"/>
  <path d="M56 98C56 87.5066 64.5066 79 75 79H112.686C118.419 79 123.686 82.2091 126.343 87.1716L134 100H189C199.493 100 208 108.507 208 119V187C208 197.493 199.493 206 189 206H75C64.5066 206 56 197.493 56 187V98Z" fill="white"/>
  <path d="M56 98V91C56 80.5066 64.5066 72 75 72H112.686C118.419 72 123.686 75.2091 126.343 80.1716L132 88H75C64.5066 88 56 96.5066 56 107V98Z" fill="white" fill-opacity="0.75"/>
  <path d="M128 124C110 124 98 133.5 98 145C98 154.5 106.5 161 124 165L148 171C160 174 166 179 166 186.5C166 196.5 156.5 204 128 204C108 204 92 196 86 186" stroke="#2563EB" stroke-width="16" stroke-linecap="round" fill="none"/>
</svg>